<svg xmlns="http://www.w3.org/2000/svg" xmlns:xlink="http://www.w3.org/1999/xlink" width="1080" zoomAndPan="magnify" viewBox="0 0 810 809.999993" height="1080" preserveAspectRatio="xMidYMid meet" version="1.0"><defs><clipPath id="d37cf0b677"><path d="M 8.101562 16 L 801.601562 16 L 801.601562 810 L 8.101562 810 Z M 8.101562 16 " clip-rule="nonzero"/></clipPath></defs><g clip-path="url(#d37cf0b677)"><path fill="#ffaf42" d="M 801.578125 413.066406 C 801.578125 481.425781 784.289062 545.75 753.882812 601.90625 C 749.3125 610.332031 744.449219 618.578125 739.285156 626.652344 C 734.121094 634.726562 728.671875 642.605469 722.941406 650.285156 C 717.210938 657.964844 711.210938 665.429688 704.941406 672.675781 C 698.671875 679.925781 692.152344 686.9375 685.375 693.714844 C 678.601562 700.492188 671.59375 707.015625 664.347656 713.289062 C 657.101562 719.558594 649.640625 725.5625 641.964844 731.292969 C 634.285156 737.027344 626.414062 742.476562 618.34375 747.644531 C 610.273438 752.808594 602.027344 757.675781 593.605469 762.246094 C 537.46875 792.675781 473.167969 809.960938 404.832031 809.960938 C 336.496094 809.960938 272.199219 792.664062 216.058594 762.246094 C 207.640625 757.675781 199.394531 752.808594 191.324219 747.644531 C 183.253906 742.476562 175.378906 737.027344 167.699219 731.296875 C 160.023438 725.5625 152.5625 719.558594 145.316406 713.289062 C 138.070312 707.015625 131.0625 700.492188 124.285156 693.714844 C 117.511719 686.9375 110.988281 679.925781 104.71875 672.675781 C 98.449219 665.429688 92.449219 657.964844 86.71875 650.285156 C 80.988281 642.605469 75.539062 634.726562 70.378906 626.652344 C 65.214844 618.582031 60.347656 610.332031 55.777344 601.90625 C 25.355469 545.75 8.078125 481.421875 8.078125 413.066406 C 8.078125 344.707031 25.367188 280.382812 55.777344 224.226562 C 60.347656 215.800781 65.210938 207.554688 70.375 199.480469 C 75.539062 191.40625 80.984375 183.527344 86.71875 175.847656 C 92.449219 168.167969 98.449219 160.703125 104.71875 153.457031 C 110.988281 146.207031 117.507812 139.195312 124.28125 132.417969 C 131.058594 125.640625 138.066406 119.117188 145.3125 112.84375 C 152.558594 106.574219 160.019531 100.570312 167.695312 94.835938 C 175.375 89.105469 183.246094 83.65625 191.320312 78.488281 C 199.390625 73.324219 207.632812 68.457031 216.054688 63.886719 C 223.265625 59.976562 230.589844 56.296875 238.03125 52.847656 C 245.46875 49.394531 253.007812 46.175781 260.648438 43.191406 C 268.285156 40.207031 276.011719 37.460938 283.820312 34.957031 C 291.628906 32.453125 299.507812 30.191406 307.457031 28.175781 C 315.40625 26.160156 323.410156 24.394531 331.46875 22.875 C 339.527344 21.355469 347.625 20.089844 355.765625 19.074219 C 363.902344 18.058594 372.0625 17.296875 380.246094 16.789062 C 388.433594 16.277344 396.625 16.023438 404.828125 16.023438 C 413.027344 16.023438 421.21875 16.277344 429.40625 16.789062 C 437.589844 17.296875 445.75 18.058594 453.886719 19.074219 C 462.027344 20.089844 470.125 21.355469 478.183594 22.875 C 486.242188 24.394531 494.246094 26.160156 502.195312 28.175781 C 510.144531 30.191406 518.023438 32.453125 525.832031 34.957031 C 533.640625 37.460938 541.367188 40.207031 549.003906 43.191406 C 556.644531 46.175781 564.183594 49.394531 571.621094 52.847656 C 579.0625 56.296875 586.386719 59.976562 593.597656 63.886719 C 602.019531 68.457031 610.261719 73.324219 618.332031 78.488281 C 626.402344 83.65625 634.277344 89.105469 641.957031 94.835938 C 649.632812 100.570312 657.09375 106.574219 664.339844 112.84375 C 671.585938 119.117188 678.59375 125.640625 685.367188 132.417969 C 692.144531 139.195312 698.664062 146.207031 704.933594 153.453125 C 711.203125 160.703125 717.203125 168.164062 722.933594 175.84375 C 728.664062 183.527344 734.113281 191.402344 739.277344 199.476562 C 744.4375 207.550781 749.304688 215.796875 753.875 224.222656 C 784.300781 280.375 801.578125 344.703125 801.578125 413.066406 Z M 801.578125 413.066406 " fill-opacity="1" fill-rule="nonzero"/></g><path fill="#ffcc88" d="M 764.066406 413.066406 C 764.070312 419.570312 763.894531 426.074219 763.542969 432.570312 C 763.191406 439.066406 762.664062 445.550781 761.960938 452.015625 C 761.257812 458.484375 760.382812 464.929688 759.328125 471.351562 C 758.277344 477.769531 757.050781 484.160156 755.652344 490.511719 C 754.253906 496.867188 752.683594 503.179688 750.941406 509.445312 C 749.199219 515.714844 747.289062 521.933594 745.210938 528.097656 C 743.132812 534.261719 740.886719 540.367188 738.476562 546.410156 C 736.070312 552.453125 733.496094 558.425781 730.761719 564.332031 C 728.027344 570.234375 725.136719 576.058594 722.085938 581.804688 C 719.035156 587.550781 715.832031 593.210938 712.476562 598.785156 C 709.121094 604.355469 705.613281 609.835938 701.960938 615.21875 C 698.304688 620.597656 694.507812 625.878906 690.566406 631.054688 C 686.625 636.230469 682.546875 641.296875 678.332031 646.25 C 674.117188 651.207031 669.769531 656.042969 665.292969 660.761719 C 660.816406 665.480469 656.214844 670.074219 651.484375 674.542969 C 646.757812 679.011719 641.914062 683.347656 636.953125 687.554688 C 631.988281 691.761719 626.917969 695.828125 621.734375 699.757812 C 616.550781 703.691406 611.265625 707.476562 605.875 711.121094 C 600.488281 714.765625 595.003906 718.257812 589.425781 721.605469 C 583.847656 724.949219 578.183594 728.140625 572.433594 731.179688 C 566.679688 734.21875 560.851562 737.097656 554.945312 739.820312 C 549.035156 742.542969 543.058594 745.101562 537.011719 747.5 C 530.964844 749.894531 524.859375 752.125 518.691406 754.191406 C 512.523438 756.257812 506.304688 758.15625 500.035156 759.882812 C 493.765625 761.609375 487.453125 763.167969 481.097656 764.550781 C 474.742188 765.9375 468.355469 767.148438 461.933594 768.1875 C 455.515625 769.226562 449.070312 770.089844 442.601562 770.777344 C 436.136719 771.46875 429.652344 771.980469 423.160156 772.316406 C 416.664062 772.652344 410.164062 772.8125 403.660156 772.796875 C 397.15625 772.78125 390.65625 772.589844 384.164062 772.21875 C 377.671875 771.851562 371.191406 771.304688 364.726562 770.585938 C 358.261719 769.863281 351.824219 768.96875 345.410156 767.898438 C 338.992188 766.828125 332.613281 765.582031 326.265625 764.167969 C 319.914062 762.75 313.609375 761.160156 307.347656 759.402344 C 301.085938 757.644531 294.878906 755.714844 288.722656 753.617188 C 282.5625 751.523438 276.46875 749.261719 270.433594 746.832031 C 264.398438 744.40625 258.433594 741.816406 252.542969 739.066406 C 246.648438 736.3125 240.832031 733.40625 235.097656 730.339844 C 229.359375 727.273438 223.710938 724.050781 218.152344 720.679688 C 212.589844 717.304688 207.125 713.78125 201.753906 710.113281 C 196.382812 706.441406 191.117188 702.628906 185.953125 698.671875 C 180.789062 694.714844 175.738281 690.621094 170.796875 686.390625 C 165.855469 682.160156 161.03125 677.800781 156.324219 673.308594 C 151.621094 668.816406 147.042969 664.199219 142.585938 659.457031 C 138.132812 654.714844 133.8125 649.859375 129.621094 644.882812 C 125.429688 639.90625 121.375 634.820312 117.460938 629.625 C 113.546875 624.429688 109.777344 619.132812 106.148438 613.730469 C 102.523438 608.332031 99.042969 602.835938 95.714844 597.246094 C 92.386719 591.65625 89.210938 585.980469 86.1875 580.21875 C 83.167969 574.457031 80.304688 568.617188 77.601562 562.699219 C 74.894531 556.785156 72.351562 550.796875 69.972656 544.742188 C 67.59375 538.6875 65.378906 532.570312 63.332031 526.394531 C 61.285156 520.222656 59.40625 513.996094 57.695312 507.71875 C 55.984375 501.441406 54.445312 495.121094 53.078125 488.757812 C 51.710938 482.398438 50.519531 476.003906 49.496094 469.578125 C 48.476562 463.152344 47.632812 456.703125 46.960938 450.234375 C 46.289062 443.761719 45.796875 437.277344 45.476562 430.777344 C 45.160156 424.28125 45.015625 417.777344 45.050781 411.269531 C 45.085938 404.765625 45.292969 398.265625 45.679688 391.769531 C 46.066406 385.273438 46.628906 378.792969 47.367188 372.332031 C 48.105469 365.867188 49.019531 359.425781 50.109375 353.011719 C 51.195312 346.597656 52.457031 340.214844 53.890625 333.871094 C 55.324219 327.523438 56.929688 321.222656 58.703125 314.960938 C 60.480469 308.703125 62.425781 302.496094 64.535156 296.34375 C 66.648438 290.191406 68.925781 284.097656 71.371094 278.066406 C 73.8125 272.039062 76.417969 266.078125 79.183594 260.191406 C 81.949219 254.300781 84.875 248.492188 87.957031 242.761719 C 91.035156 237.03125 94.269531 231.390625 97.660156 225.835938 C 101.046875 220.28125 104.582031 214.824219 108.265625 209.460938 C 111.949219 204.101562 115.777344 198.839844 119.746094 193.6875 C 123.714844 188.53125 127.820312 183.488281 132.0625 178.558594 C 136.304688 173.625 140.675781 168.8125 145.179688 164.121094 C 149.683594 159.425781 154.3125 154.855469 159.0625 150.414062 C 163.816406 145.972656 168.683594 141.660156 173.667969 137.480469 C 178.65625 133.304688 183.75 129.261719 188.953125 125.363281 C 194.160156 121.460938 199.464844 117.703125 204.875 114.085938 C 210.28125 110.472656 215.785156 107.007812 221.378906 103.695312 C 226.976562 100.378906 232.660156 97.21875 238.425781 94.210938 C 244.195312 91.207031 250.039062 88.359375 255.960938 85.667969 C 261.886719 82.980469 267.875 80.453125 273.933594 78.089844 C 279.996094 75.726562 286.113281 73.527344 292.292969 71.496094 C 298.472656 69.464844 304.699219 67.601562 310.980469 65.90625 C 317.261719 64.214844 323.582031 62.691406 329.945312 61.339844 C 336.304688 59.992188 342.699219 58.8125 349.125 57.8125 C 355.550781 56.808594 362 55.980469 368.472656 55.328125 C 374.941406 54.675781 381.425781 54.195312 387.925781 53.894531 C 394.421875 53.59375 400.921875 53.46875 407.425781 53.523438 C 413.929688 53.574219 420.425781 53.800781 426.917969 54.207031 C 433.410156 54.613281 439.886719 55.191406 446.34375 55.949219 C 452.804688 56.703125 459.238281 57.636719 465.648438 58.742188 C 472.058594 59.847656 478.433594 61.125 484.773438 62.578125 C 491.113281 64.03125 497.410156 65.652344 503.660156 67.445312 C 509.914062 69.238281 516.109375 71.199219 522.257812 73.332031 C 528.402344 75.460938 534.484375 77.757812 540.507812 80.21875 C 546.527344 82.675781 552.476562 85.300781 558.355469 88.082031 C 564.234375 90.867188 570.035156 93.808594 575.753906 96.90625 C 579.292969 98.820312 582.800781 100.792969 586.273438 102.824219 C 589.746094 104.855469 593.183594 106.945312 596.589844 109.09375 C 599.992188 111.242188 603.359375 113.445312 606.6875 115.707031 C 610.015625 117.96875 613.304688 120.285156 616.558594 122.65625 C 619.808594 125.027344 623.019531 127.453125 626.191406 129.929688 C 629.359375 132.410156 632.488281 134.941406 635.570312 137.527344 C 638.65625 140.113281 641.695312 142.746094 644.691406 145.433594 C 647.6875 148.121094 650.640625 150.859375 653.542969 153.644531 C 656.449219 156.429688 659.304688 159.265625 662.113281 162.148438 C 664.921875 165.03125 667.679688 167.957031 670.390625 170.933594 C 673.101562 173.910156 675.761719 176.929688 678.371094 179.992188 C 680.980469 183.058594 683.535156 186.164062 686.042969 189.316406 C 688.546875 192.464844 690.996094 195.65625 693.394531 198.890625 C 695.792969 202.125 698.132812 205.394531 700.421875 208.707031 C 702.707031 212.019531 704.9375 215.367188 707.113281 218.753906 C 709.289062 222.140625 711.40625 225.566406 713.464844 229.023438 C 715.523438 232.480469 717.527344 235.972656 719.46875 239.496094 C 721.410156 243.023438 723.292969 246.578125 725.117188 250.167969 C 726.9375 253.757812 728.703125 257.375 730.402344 261.023438 C 732.105469 264.671875 733.742188 268.347656 735.320312 272.050781 C 736.898438 275.753906 738.414062 279.480469 739.867188 283.234375 C 741.316406 286.988281 742.707031 290.765625 744.03125 294.566406 C 745.359375 298.367188 746.617188 302.191406 747.816406 306.03125 C 749.011719 309.875 750.144531 313.738281 751.210938 317.621094 C 752.277344 321.5 753.28125 325.398438 754.214844 329.3125 C 755.152344 333.226562 756.023438 337.15625 756.828125 341.101562 C 757.628906 345.046875 758.367188 349.003906 759.039062 352.972656 C 759.710938 356.941406 760.316406 360.917969 760.851562 364.910156 C 761.390625 368.898438 761.859375 372.894531 762.261719 376.902344 C 762.664062 380.90625 763 384.917969 763.269531 388.933594 C 763.539062 392.949219 763.738281 396.96875 763.871094 400.992188 C 764.003906 405.015625 764.070312 409.039062 764.066406 413.066406 Z M 764.066406 413.066406 " fill-opacity="1" fill-rule="nonzero"/><path fill="#ff9300" d="M 526.789062 74.933594 L 489 233.179688 L 320.65625 233.179688 L 282.863281 74.960938 C 292.625 71.453125 302.523438 68.371094 312.550781 65.71875 C 322.582031 63.066406 332.707031 60.847656 342.925781 59.066406 C 353.148438 57.289062 363.425781 55.949219 373.761719 55.058594 C 384.097656 54.164062 394.453125 53.71875 404.828125 53.71875 C 415.199219 53.71875 425.554688 54.164062 435.890625 55.058594 C 446.226562 55.949219 456.503906 57.289062 466.726562 59.066406 C 476.945312 60.847656 487.070312 63.066406 497.101562 65.71875 C 507.128906 68.371094 517.027344 71.453125 526.789062 74.960938 Z M 526.789062 74.933594 " fill-opacity="1" fill-rule="nonzero"/><path fill="#ff9300" d="M 66.828125 291.054688 L 224.992188 328.859375 L 224.992188 497.265625 L 66.832031 535.070312 C 63.324219 525.304688 60.246094 515.402344 57.59375 505.371094 C 54.941406 495.339844 52.722656 485.210938 50.945312 474.984375 C 49.164062 464.761719 47.828125 454.480469 46.9375 444.140625 C 46.042969 433.800781 45.597656 423.441406 45.597656 413.0625 C 45.597656 402.683594 46.042969 392.324219 46.9375 381.984375 C 47.828125 371.644531 49.164062 361.363281 50.945312 351.140625 C 52.722656 340.914062 54.941406 330.785156 57.59375 320.753906 C 60.246094 310.722656 63.324219 300.820312 66.832031 291.054688 Z M 66.828125 291.054688 " fill-opacity="1" fill-rule="nonzero"/><path fill="#ff9300" d="M 282.867188 751.191406 L 320.660156 592.96875 L 489.003906 592.96875 L 526.796875 751.1875 C 517.03125 754.695312 507.132812 757.773438 497.105469 760.429688 C 487.074219 763.082031 476.949219 765.296875 466.730469 767.078125 C 456.507812 768.859375 446.230469 770.195312 435.894531 771.089844 C 425.558594 771.980469 415.203125 772.429688 404.832031 772.429688 C 394.457031 772.429688 384.101562 771.980469 373.765625 771.089844 C 363.429688 770.195312 353.152344 768.859375 342.929688 767.078125 C 332.710938 765.296875 322.585938 763.082031 312.554688 760.429688 C 302.527344 757.773438 292.628906 754.695312 282.867188 751.1875 Z M 282.867188 751.191406 " fill-opacity="1" fill-rule="nonzero"/><path fill="#ff9300" d="M 742.828125 535.070312 L 584.648438 497.265625 L 584.648438 328.859375 L 742.808594 291.054688 C 746.316406 300.820312 749.394531 310.722656 752.046875 320.753906 C 754.699219 330.785156 756.914062 340.914062 758.695312 351.140625 C 760.472656 361.363281 761.808594 371.644531 762.703125 381.984375 C 763.597656 392.324219 764.042969 402.683594 764.042969 413.0625 C 764.042969 423.441406 763.597656 433.800781 762.703125 444.140625 C 761.808594 454.480469 760.472656 464.761719 758.695312 474.984375 C 756.914062 485.210938 754.699219 495.339844 752.046875 505.371094 C 749.394531 515.402344 746.316406 525.304688 742.808594 535.070312 Z M 742.828125 535.070312 " fill-opacity="1" fill-rule="nonzero"/><path fill="#ffaf42" d="M 674.363281 413.066406 C 674.363281 417.476562 674.257812 421.886719 674.039062 426.296875 C 673.824219 430.703125 673.5 435.101562 673.066406 439.492188 C 672.632812 443.886719 672.09375 448.261719 671.445312 452.628906 C 670.800781 456.992188 670.046875 461.339844 669.183594 465.667969 C 668.324219 469.996094 667.359375 474.300781 666.285156 478.582031 C 665.214844 482.859375 664.039062 487.113281 662.757812 491.335938 C 661.476562 495.558594 660.09375 499.746094 658.609375 503.902344 C 657.121094 508.058594 655.535156 512.171875 653.847656 516.25 C 652.160156 520.328125 650.371094 524.359375 648.484375 528.347656 C 646.601562 532.335938 644.617188 536.277344 642.539062 540.167969 C 640.457031 544.0625 638.285156 547.898438 636.015625 551.683594 C 633.75 555.46875 631.390625 559.195312 628.9375 562.867188 C 626.488281 566.535156 623.949219 570.140625 621.320312 573.6875 C 618.695312 577.230469 615.980469 580.707031 613.183594 584.121094 C 610.382812 587.53125 607.503906 590.871094 604.542969 594.140625 C 601.578125 597.410156 598.539062 600.605469 595.417969 603.726562 C 592.300781 606.847656 589.105469 609.886719 585.835938 612.851562 C 582.570312 615.816406 579.230469 618.695312 575.820312 621.496094 C 572.410156 624.296875 568.933594 627.007812 565.390625 629.636719 C 561.847656 632.265625 558.242188 634.804688 554.574219 637.257812 C 550.90625 639.710938 547.179688 642.070312 543.398438 644.339844 C 539.613281 646.605469 535.777344 648.78125 531.886719 650.863281 C 527.996094 652.941406 524.058594 654.925781 520.070312 656.8125 C 516.082031 658.699219 512.050781 660.488281 507.976562 662.175781 C 503.898438 663.863281 499.785156 665.453125 495.632812 666.9375 C 491.480469 668.425781 487.292969 669.808594 483.070312 671.089844 C 478.847656 672.371094 474.597656 673.546875 470.320312 674.621094 C 466.042969 675.691406 461.738281 676.65625 457.414062 677.519531 C 453.085938 678.378906 448.742188 679.132812 444.378906 679.78125 C 440.015625 680.429688 435.636719 680.96875 431.246094 681.402344 C 426.859375 681.835938 422.460938 682.160156 418.054688 682.375 C 413.648438 682.589844 409.238281 682.699219 404.828125 682.699219 C 400.417969 682.699219 396.007812 682.589844 391.601562 682.375 C 387.195312 682.160156 382.800781 681.835938 378.410156 681.402344 C 374.019531 680.96875 369.644531 680.429688 365.277344 679.78125 C 360.914062 679.132812 356.570312 678.378906 352.246094 677.519531 C 347.917969 676.65625 343.617188 675.691406 339.335938 674.621094 C 335.058594 673.546875 330.808594 672.371094 326.585938 671.089844 C 322.363281 669.808594 318.175781 668.425781 314.023438 666.9375 C 309.871094 665.453125 305.757812 663.863281 301.679688 662.175781 C 297.605469 660.488281 293.574219 658.699219 289.585938 656.8125 C 285.597656 654.925781 281.660156 652.941406 277.769531 650.863281 C 273.878906 648.78125 270.042969 646.605469 266.257812 644.339844 C 262.476562 642.070312 258.75 639.710938 255.082031 637.257812 C 251.414062 634.804688 247.808594 632.265625 244.265625 629.636719 C 240.722656 627.007812 237.246094 624.296875 233.835938 621.496094 C 230.425781 618.695312 227.085938 615.816406 223.820312 612.851562 C 220.550781 609.886719 217.355469 606.847656 214.238281 603.726562 C 211.117188 600.605469 208.078125 597.410156 205.117188 594.140625 C 202.152344 590.871094 199.273438 587.53125 196.472656 584.121094 C 193.675781 580.707031 190.960938 577.230469 188.335938 573.6875 C 185.707031 570.140625 183.167969 566.535156 180.71875 562.867188 C 178.265625 559.195312 175.90625 555.46875 173.640625 551.683594 C 171.371094 547.898438 169.199219 544.0625 167.117188 540.167969 C 165.039062 536.277344 163.058594 532.335938 161.171875 528.347656 C 159.285156 524.359375 157.496094 520.328125 155.808594 516.25 C 154.121094 512.171875 152.535156 508.058594 151.046875 503.902344 C 149.5625 499.746094 148.179688 495.558594 146.898438 491.335938 C 145.617188 487.113281 144.441406 482.859375 143.371094 478.582031 C 142.296875 474.300781 141.332031 469.996094 140.472656 465.667969 C 139.609375 461.339844 138.855469 456.992188 138.210938 452.628906 C 137.5625 448.261719 137.023438 443.886719 136.589844 439.492188 C 136.15625 435.101562 135.832031 430.703125 135.617188 426.296875 C 135.402344 421.886719 135.292969 417.476562 135.292969 413.066406 C 135.292969 408.652344 135.402344 404.242188 135.617188 399.835938 C 135.832031 395.425781 136.15625 391.027344 136.589844 386.636719 C 137.023438 382.246094 137.5625 377.867188 138.210938 373.5 C 138.855469 369.136719 139.609375 364.789062 140.472656 360.460938 C 141.332031 356.132812 142.296875 351.828125 143.371094 347.546875 C 144.441406 343.269531 145.617188 339.015625 146.898438 334.792969 C 148.179688 330.570312 149.5625 326.382812 151.046875 322.226562 C 152.535156 318.074219 154.121094 313.957031 155.808594 309.878906 C 157.496094 305.800781 159.285156 301.769531 161.171875 297.78125 C 163.058594 293.792969 165.039062 289.851562 167.117188 285.960938 C 169.199219 282.066406 171.371094 278.230469 173.640625 274.445312 C 175.90625 270.660156 178.265625 266.933594 180.71875 263.261719 C 183.167969 259.59375 185.707031 255.988281 188.335938 252.441406 C 190.960938 248.898438 193.675781 245.421875 196.472656 242.011719 C 199.273438 238.597656 202.152344 235.257812 205.117188 231.988281 C 208.078125 228.71875 211.117188 225.523438 214.238281 222.402344 C 217.355469 219.285156 220.550781 216.242188 223.820312 213.277344 C 227.085938 210.316406 230.425781 207.433594 233.835938 204.632812 C 237.246094 201.835938 240.722656 199.121094 244.265625 196.492188 C 247.808594 193.863281 251.414062 191.324219 255.082031 188.871094 C 258.75 186.417969 262.476562 184.058594 266.257812 181.789062 C 270.042969 179.523438 273.878906 177.347656 277.769531 175.265625 C 281.660156 173.1875 285.597656 171.203125 289.585938 169.316406 C 293.574219 167.429688 297.605469 165.644531 301.679688 163.953125 C 305.757812 162.265625 309.871094 160.675781 314.023438 159.191406 C 318.175781 157.703125 322.363281 156.320312 326.585938 155.039062 C 330.808594 153.757812 335.058594 152.582031 339.335938 151.511719 C 343.617188 150.4375 347.917969 149.472656 352.246094 148.609375 C 356.570312 147.75 360.914062 146.996094 365.277344 146.347656 C 369.644531 145.699219 374.019531 145.160156 378.410156 144.726562 C 382.800781 144.296875 387.195312 143.96875 391.601562 143.753906 C 396.007812 143.539062 400.417969 143.429688 404.828125 143.429688 C 409.238281 143.429688 413.648438 143.539062 418.054688 143.753906 C 422.460938 143.96875 426.859375 144.296875 431.246094 144.726562 C 435.636719 145.160156 440.015625 145.699219 444.378906 146.347656 C 448.742188 146.996094 453.085938 147.75 457.414062 148.609375 C 461.738281 149.472656 466.042969 150.4375 470.320312 151.511719 C 474.597656 152.582031 478.847656 153.757812 483.070312 155.039062 C 487.292969 156.320312 491.480469 157.703125 495.632812 159.191406 C 499.785156 160.675781 503.898438 162.265625 507.976562 163.953125 C 512.050781 165.644531 516.082031 167.429688 520.070312 169.316406 C 524.058594 171.203125 527.996094 173.1875 531.886719 175.265625 C 535.777344 177.347656 539.613281 179.523438 543.398438 181.789062 C 547.179688 184.058594 550.90625 186.417969 554.574219 188.871094 C 558.242188 191.324219 561.847656 193.863281 565.390625 196.492188 C 568.933594 199.121094 572.410156 201.835938 575.820312 204.632812 C 579.230469 207.433594 582.570312 210.316406 585.835938 213.277344 C 589.105469 216.242188 592.300781 219.285156 595.417969 222.402344 C 598.539062 225.523438 601.578125 228.71875 604.542969 231.988281 C 607.503906 235.257812 610.382812 238.597656 613.183594 242.011719 C 615.980469 245.421875 618.695312 248.898438 621.320312 252.441406 C 623.949219 255.988281 626.488281 259.59375 628.9375 263.261719 C 631.390625 266.933594 633.75 270.660156 636.015625 274.445312 C 638.285156 278.230469 640.457031 282.066406 642.539062 285.960938 C 644.617188 289.851562 646.601562 293.792969 648.484375 297.78125 C 650.371094 301.769531 652.160156 305.800781 653.847656 309.878906 C 655.535156 313.957031 657.121094 318.074219 658.609375 322.226562 C 660.09375 326.382812 661.476562 330.570312 662.757812 334.792969 C 664.039062 339.015625 665.214844 343.269531 666.285156 347.546875 C 667.359375 351.828125 668.324219 356.132812 669.183594 360.460938 C 670.046875 364.789062 670.800781 369.136719 671.445312 373.5 C 672.09375 377.867188 672.632812 382.246094 673.066406 386.636719 C 673.5 391.027344 673.824219 395.425781 674.039062 399.835938 C 674.257812 404.242188 674.363281 408.652344 674.363281 413.066406 Z M 674.363281 413.066406 " fill-opacity="1" fill-rule="nonzero"/><path fill="#ff9300" d="M 625.449219 413.066406 C 625.449219 416.675781 625.359375 420.285156 625.183594 423.894531 C 625.007812 427.5 624.742188 431.101562 624.386719 434.699219 C 624.035156 438.292969 623.589844 441.875 623.0625 445.449219 C 622.53125 449.019531 621.914062 452.578125 621.210938 456.121094 C 620.507812 459.664062 619.714844 463.1875 618.835938 466.691406 C 617.960938 470.195312 616.996094 473.675781 615.949219 477.132812 C 614.902344 480.585938 613.769531 484.015625 612.554688 487.417969 C 611.335938 490.816406 610.039062 494.1875 608.65625 497.523438 C 607.273438 500.859375 605.8125 504.160156 604.269531 507.425781 C 602.722656 510.691406 601.101562 513.917969 599.398438 517.101562 C 597.695312 520.289062 595.917969 523.429688 594.0625 526.527344 C 592.207031 529.625 590.273438 532.675781 588.269531 535.679688 C 586.261719 538.683594 584.183594 541.636719 582.03125 544.535156 C 579.882812 547.4375 577.660156 550.285156 575.371094 553.078125 C 573.082031 555.867188 570.722656 558.601562 568.296875 561.28125 C 565.875 563.957031 563.382812 566.570312 560.832031 569.125 C 558.277344 571.679688 555.664062 574.167969 552.988281 576.59375 C 550.3125 579.019531 547.582031 581.378906 544.789062 583.671875 C 541.996094 585.960938 539.152344 588.183594 536.253906 590.335938 C 533.351562 592.484375 530.402344 594.566406 527.398438 596.570312 C 524.398438 598.578125 521.347656 600.511719 518.25 602.367188 C 515.152344 604.222656 512.011719 606.003906 508.828125 607.707031 C 505.644531 609.410156 502.421875 611.03125 499.15625 612.578125 C 495.890625 614.121094 492.59375 615.585938 489.257812 616.96875 C 485.921875 618.347656 482.554688 619.648438 479.152344 620.867188 C 475.753906 622.082031 472.328125 623.214844 468.871094 624.265625 C 465.417969 625.3125 461.9375 626.277344 458.433594 627.152344 C 454.933594 628.03125 451.410156 628.820312 447.871094 629.527344 C 444.328125 630.230469 440.773438 630.847656 437.199219 631.378906 C 433.628906 631.910156 430.046875 632.351562 426.453125 632.703125 C 422.859375 633.058594 419.261719 633.324219 415.652344 633.5 C 412.046875 633.679688 408.4375 633.765625 404.828125 633.765625 C 401.21875 633.765625 397.609375 633.679688 394.003906 633.5 C 390.398438 633.324219 386.796875 633.058594 383.203125 632.703125 C 379.609375 632.351562 376.027344 631.910156 372.457031 631.378906 C 368.886719 630.847656 365.328125 630.230469 361.789062 629.527344 C 358.246094 628.820312 354.722656 628.03125 351.222656 627.152344 C 347.71875 626.277344 344.242188 625.3125 340.785156 624.265625 C 337.332031 623.214844 333.902344 622.082031 330.503906 620.867188 C 327.105469 619.648438 323.734375 618.347656 320.398438 616.96875 C 317.0625 615.585938 313.765625 614.121094 310.5 612.578125 C 307.238281 611.03125 304.011719 609.410156 300.828125 607.707031 C 297.644531 606.003906 294.503906 604.222656 291.40625 602.367188 C 288.308594 600.511719 285.261719 598.578125 282.257812 596.570312 C 279.253906 594.566406 276.304688 592.484375 273.40625 590.335938 C 270.503906 588.183594 267.660156 585.960938 264.867188 583.671875 C 262.078125 581.378906 259.34375 579.019531 256.667969 576.59375 C 253.992188 574.167969 251.378906 571.679688 248.824219 569.125 C 246.273438 566.570312 243.785156 563.957031 241.359375 561.28125 C 238.933594 558.601562 236.578125 555.867188 234.285156 553.078125 C 231.996094 550.285156 229.773438 547.4375 227.625 544.535156 C 225.472656 541.636719 223.394531 538.683594 221.386719 535.679688 C 219.382812 532.675781 217.453125 529.625 215.59375 526.527344 C 213.738281 523.429688 211.960938 520.289062 210.257812 517.101562 C 208.554688 513.917969 206.933594 510.691406 205.390625 507.425781 C 203.84375 504.160156 202.382812 500.859375 201 497.523438 C 199.621094 494.1875 198.320312 490.816406 197.105469 487.417969 C 195.886719 484.015625 194.753906 480.585938 193.707031 477.132812 C 192.660156 473.675781 191.695312 470.195312 190.820312 466.691406 C 189.941406 463.1875 189.152344 459.664062 188.445312 456.121094 C 187.742188 452.578125 187.125 449.019531 186.59375 445.449219 C 186.066406 441.875 185.625 438.292969 185.269531 434.699219 C 184.914062 431.101562 184.648438 427.5 184.472656 423.894531 C 184.296875 420.285156 184.207031 416.675781 184.207031 413.066406 C 184.207031 409.453125 184.296875 405.84375 184.472656 402.234375 C 184.648438 398.628906 184.914062 395.027344 185.269531 391.433594 C 185.625 387.835938 186.066406 384.253906 186.59375 380.679688 C 187.125 377.109375 187.742188 373.550781 188.445312 370.007812 C 189.152344 366.464844 189.941406 362.941406 190.820312 359.4375 C 191.695312 355.933594 192.660156 352.453125 193.707031 348.996094 C 194.753906 345.542969 195.886719 342.113281 197.105469 338.710938 C 198.320312 335.3125 199.621094 331.941406 201 328.605469 C 202.382812 325.269531 203.84375 321.96875 205.390625 318.703125 C 206.933594 315.4375 208.554688 312.210938 210.257812 309.027344 C 211.960938 305.839844 213.738281 302.699219 215.59375 299.601562 C 217.453125 296.503906 219.382812 293.453125 221.386719 290.449219 C 223.394531 287.445312 225.472656 284.492188 227.625 281.59375 C 229.773438 278.691406 231.996094 275.84375 234.285156 273.050781 C 236.578125 270.261719 238.933594 267.527344 241.359375 264.851562 C 243.785156 262.171875 246.273438 259.558594 248.824219 257.003906 C 251.378906 254.449219 253.992188 251.960938 256.667969 249.535156 C 259.34375 247.109375 262.078125 244.75 264.867188 242.460938 C 267.660156 240.167969 270.503906 237.945312 273.40625 235.792969 C 276.304688 233.644531 279.253906 231.5625 282.257812 229.558594 C 285.261719 227.550781 288.308594 225.617188 291.40625 223.761719 C 294.503906 221.90625 297.644531 220.125 300.828125 218.421875 C 304.011719 216.71875 307.238281 215.097656 310.5 213.550781 C 313.765625 212.007812 317.0625 210.542969 320.398438 209.160156 C 323.734375 207.78125 327.105469 206.480469 330.503906 205.261719 C 333.902344 204.046875 337.332031 202.914062 340.785156 201.867188 C 344.242188 200.816406 347.71875 199.855469 351.222656 198.976562 C 354.722656 198.097656 358.246094 197.308594 361.789062 196.601562 C 365.328125 195.898438 368.886719 195.28125 372.457031 194.75 C 376.027344 194.21875 379.609375 193.777344 383.203125 193.425781 C 386.796875 193.070312 390.398438 192.804688 394.003906 192.628906 C 397.609375 192.449219 401.21875 192.363281 404.828125 192.363281 C 408.4375 192.363281 412.046875 192.449219 415.652344 192.628906 C 419.261719 192.804688 422.859375 193.070312 426.453125 193.425781 C 430.046875 193.777344 433.628906 194.21875 437.199219 194.75 C 440.773438 195.28125 444.328125 195.898438 447.871094 196.601562 C 451.410156 197.308594 454.933594 198.097656 458.433594 198.976562 C 461.9375 199.855469 465.417969 200.816406 468.871094 201.867188 C 472.328125 202.914062 475.753906 204.046875 479.152344 205.261719 C 482.554688 206.480469 485.921875 207.78125 489.257812 209.160156 C 492.59375 210.542969 495.890625 212.007812 499.15625 213.550781 C 502.421875 215.097656 505.644531 216.71875 508.828125 218.421875 C 512.011719 220.125 515.152344 221.90625 518.25 223.761719 C 521.347656 225.617188 524.398438 227.550781 527.398438 229.558594 C 530.402344 231.5625 533.351562 233.644531 536.253906 235.792969 C 539.152344 237.945312 542 240.167969 544.789062 242.460938 C 547.582031 244.75 550.3125 247.109375 552.988281 249.535156 C 555.664062 251.960938 558.277344 254.449219 560.832031 257.003906 C 563.382812 259.558594 565.875 262.171875 568.296875 264.851562 C 570.722656 267.527344 573.082031 270.261719 575.371094 273.050781 C 577.660156 275.84375 579.882812 278.691406 582.03125 281.59375 C 584.183594 284.492188 586.261719 287.445312 588.269531 290.449219 C 590.273438 293.453125 592.207031 296.503906 594.0625 299.601562 C 595.917969 302.699219 597.695312 305.839844 599.398438 309.027344 C 601.101562 312.210938 602.722656 315.4375 604.269531 318.703125 C 605.8125 321.96875 607.273438 325.269531 608.65625 328.605469 C 610.039062 331.941406 611.335938 335.3125 612.554688 338.710938 C 613.769531 342.113281 614.902344 345.542969 615.949219 348.996094 C 616.996094 352.453125 617.960938 355.933594 618.839844 359.4375 C 619.714844 362.941406 620.507812 366.464844 621.210938 370.007812 C 621.914062 373.550781 622.53125 377.109375 623.0625 380.679688 C 623.589844 384.253906 624.035156 387.835938 624.386719 391.433594 C 624.742188 395.027344 625.007812 398.628906 625.183594 402.234375 C 625.359375 405.84375 625.449219 409.453125 625.449219 413.066406 Z M 625.449219 413.066406 " fill-opacity="1" fill-rule="nonzero"/><path fill="#ffffff" d="M 418.398438 273.855469 L 450.699219 339.328125 C 451.242188 340.429688 451.910156 341.449219 452.699219 342.386719 C 453.488281 343.324219 454.382812 344.152344 455.375 344.875 C 456.367188 345.597656 457.429688 346.1875 458.566406 346.652344 C 459.703125 347.113281 460.875 347.433594 462.089844 347.609375 L 534.320312 358.109375 C 546.730469 359.910156 551.683594 375.167969 542.707031 383.925781 L 490.414062 434.890625 C 489.535156 435.746094 488.773438 436.695312 488.125 437.738281 C 487.476562 438.78125 486.964844 439.886719 486.585938 441.054688 C 486.207031 442.222656 485.972656 443.417969 485.882812 444.640625 C 485.796875 445.867188 485.855469 447.082031 486.0625 448.292969 L 498.398438 520.257812 C 500.519531 532.621094 487.546875 542.050781 476.449219 536.214844 L 411.847656 502.238281 C 410.761719 501.667969 409.625 501.234375 408.433594 500.941406 C 407.242188 500.648438 406.035156 500.5 404.808594 500.5 C 403.582031 500.5 402.375 500.648438 401.183594 500.941406 C 399.992188 501.234375 398.855469 501.667969 397.769531 502.238281 L 333.167969 536.214844 C 322.066406 542.050781 309.097656 532.625 311.21875 520.257812 L 323.5625 448.285156 C 323.769531 447.074219 323.832031 445.859375 323.742188 444.632812 C 323.65625 443.410156 323.421875 442.210938 323.042969 441.042969 C 322.664062 439.878906 322.148438 438.773438 321.5 437.730469 C 320.851562 436.6875 320.089844 435.738281 319.210938 434.878906 L 266.9375 383.925781 C 257.960938 375.167969 262.914062 359.910156 275.324219 358.109375 L 347.554688 347.609375 C 348.769531 347.433594 349.941406 347.113281 351.078125 346.652344 C 352.214844 346.1875 353.277344 345.597656 354.269531 344.875 C 355.261719 344.152344 356.152344 343.324219 356.945312 342.386719 C 357.734375 341.449219 358.402344 340.429688 358.945312 339.328125 L 391.246094 273.855469 C 396.808594 262.609375 412.847656 262.609375 418.398438 273.855469 Z M 418.398438 273.855469 " fill-opacity="1" fill-rule="nonzero"/></svg>